HIERARCHY
ROOT hip
{
  OFFSET 0 0 0
  CHANNELS 6 Xposition Yposition Zposition Zrotation Yrotation Xrotation
  JOINT abdomen
  {
    OFFSET 0 20.6881 -0.73152
    CHANNELS 3 Zrotation Xrotation Yrotation
    JOINT chest
    {
      OFFSET 0 11.7043 -0.48768
      CHANNELS 3 Zrotation Xrotation Yrotation
      JOINT neck
      {
        OFFSET 0 22.1894 -2.19456
        CHANNELS 3 Zrotation Xrotation Yrotation
        JOINT head
        {
          OFFSET -0.24384 7.07133 1.2192
          CHANNELS 3 Zrotation Xrotation Yrotation
          JOINT leftEye
          {
            OFFSET 4.14528 8.04674 8.04672
            CHANNELS 3 Zrotation Xrotation Yrotation
            End Site
            {
              OFFSET 1 0 0
            }
          }
          JOINT rightEye
          {
            OFFSET -3.6576 8.04674 8.04672
            CHANNELS 3 Zrotation Xrotation Yrotation
            End Site
            {
              OFFSET 1 0 0
            }
          }
        }
      }
      JOINT rCollar
      {
        OFFSET -2.68224 19.2634 -4.8768
        CHANNELS 3 Zrotation Xrotation Yrotation
        JOINT rShldr
        {
          OFFSET -8.77824 -1.95073 1.46304
          CHANNELS 3 Zrotation Xrotation Yrotation
          JOINT rForeArm
          {
            OFFSET -28.1742 -1.7115 0.48768
            CHANNELS 3 Zrotation Xrotation Yrotation
            JOINT rHand
            {
              OFFSET -22.5879 0.773209 7.07136
              CHANNELS 3 Zrotation Xrotation Yrotation
              JOINT rThumb1
              {
                OFFSET -1.2192 -0.487915 3.41376
                CHANNELS 3 Zrotation Xrotation Yrotation
                JOINT rThumb2
                {
                  OFFSET -3.37035 -0.52449 3.41376
                  CHANNELS 3 Zrotation Xrotation Yrotation
                  End Site
                  {
                    OFFSET -1.78271 -1.18214 1.43049
                  }
                }
              }
              JOINT rIndex1
              {
                OFFSET -7.75947 0.938293 5.60832
                CHANNELS 3 Zrotation Xrotation Yrotation
                JOINT rIndex2
                {
                  OFFSET -2.54057 -0.884171 1.56538
                  CHANNELS 3 Zrotation Xrotation Yrotation
                  End Site
                  {
                    OFFSET -1.62519 -0.234802 1.16502
                  }
                }
              }
              JOINT rMid1
              {
                OFFSET -8.24714 1.18213 3.41376
                CHANNELS 3 Zrotation Xrotation Yrotation
                JOINT rMid2
                {
                  OFFSET -3.10165 -0.590103 1.0647
                  CHANNELS 3 Zrotation Xrotation Yrotation
                  End Site
                  {
                    OFFSET -2.48547 -0.328903 0.83742
                  }
                }
              }
              JOINT rRing1
              {
                OFFSET -8.82822 0.546677 1.51678
                CHANNELS 3 Zrotation Xrotation Yrotation
                JOINT rRing2
                {
                  OFFSET -2.60934 -0.819778 -0.0198488
                  CHANNELS 3 Zrotation Xrotation Yrotation
                  End Site
                  {
                    OFFSET -2.33842 -0.294052 0.168128
                  }
                }
              }
              JOINT rPinky1
              {
                OFFSET -8.27202 -0.0477905 -0.4584
                CHANNELS 3 Zrotation Xrotation Yrotation
                JOINT rPinky2
                {
                  OFFSET -1.82734 -0.647385 -0.700984
                  CHANNELS 3 Zrotation Xrotation Yrotation
                  End Site
                  {
                    OFFSET -1.69225 -0.51767 -0.607171
                  }
                }
              }
            }
          }
        }
      }
      JOINT lCollar
      {
        OFFSET 2.68224 19.2634 -4.8768
        CHANNELS 3 Zrotation Xrotation Yrotation
        JOINT lShldr
        {
          OFFSET 8.77824 -1.95073 1.46304
          CHANNELS 3 Zrotation Xrotation Yrotation
          JOINT lForeArm
          {
            OFFSET 28.1742 -1.7115 0.48768
            CHANNELS 3 Zrotation Xrotation Yrotation
            JOINT lHand
            {
              OFFSET 22.5879 0.773209 7.07136
              CHANNELS 3 Zrotation Xrotation Yrotation
              JOINT lThumb1
              {
                OFFSET 1.2192 -0.487915 3.41376
                CHANNELS 3 Zrotation Xrotation Yrotation
                JOINT lThumb2
                {
                  OFFSET 3.37035 -0.52449 3.41376
                  CHANNELS 3 Zrotation Xrotation Yrotation
                  End Site
                  {
                    OFFSET 1.78271 -1.18214 1.43049
                  }
                }
              }
              JOINT lIndex1
              {
                OFFSET 7.75947 0.938293 5.60832
                CHANNELS 3 Zrotation Xrotation Yrotation
                JOINT lIndex2
                {
                  OFFSET 2.54057 -0.884171 1.56538
                  CHANNELS 3 Zrotation Xrotation Yrotation
                  End Site
                  {
                    OFFSET 1.62519 -0.234802 1.16502
                  }
                }
              }
              JOINT lMid1
              {
                OFFSET 8.24714 1.18213 3.41376
                CHANNELS 3 Zrotation Xrotation Yrotation
                JOINT lMid2
                {
                  OFFSET 3.10165 -0.590103 1.0647
                  CHANNELS 3 Zrotation Xrotation Yrotation
                  End Site
                  {
                    OFFSET 2.48547 -0.328903 0.83742
                  }
                }
              }
              JOINT lRing1
              {
                OFFSET 8.82822 0.546677 1.51678
                CHANNELS 3 Zrotation Xrotation Yrotation
                JOINT lRing2
                {
                  OFFSET 2.60934 -0.819778 -0.0198488
                  CHANNELS 3 Zrotation Xrotation Yrotation
                  End Site
                  {
                    OFFSET 2.33842 -0.294052 0.168128
                  }
                }
              }
              JOINT lPinky1
              {
                OFFSET 8.27202 -0.0477905 -0.4584
                CHANNELS 3 Zrotation Xrotation Yrotation
                JOINT lPinky2
                {
                  OFFSET 1.82734 -0.647385 -0.700984
                  CHANNELS 3 Zrotation Xrotation Yrotation
                  End Site
                  {
                    OFFSET 1.69225 -0.51767 -0.607171
                  }
                }
              }
            }
          }
        }
      }
    }
  }
  JOINT rButtock
  {
    OFFSET -8.77824 4.35084 1.2192
    CHANNELS 3 Zrotation Xrotation Yrotation
    JOINT rThigh
    {
      OFFSET 0 -1.70687 -2.19456
      CHANNELS 3 Zrotation Xrotation Yrotation
      JOINT rShin
      {
        OFFSET 0 -36.8199 0.73152
        CHANNELS 3 Zrotation Xrotation Yrotation
        JOINT rFoot
        {
          OFFSET 0.73152 -45.1104 -5.12064
          CHANNELS 3 Zrotation Xrotation Yrotation
          End Site
          {
            OFFSET -1.1221 -3.69964 12.103
          }
        }
      }
    }
  }
  JOINT lButtock
  {
    OFFSET 8.77824 4.35084 1.2192
    CHANNELS 3 Zrotation Xrotation Yrotation
    JOINT lThigh
    {
      OFFSET 0 -1.70687 -2.19456
      CHANNELS 3 Zrotation Xrotation Yrotation
      JOINT lShin
      {
        OFFSET 0 -36.8199 0.73152
        CHANNELS 3 Zrotation Xrotation Yrotation
        JOINT lFoot
        {
          OFFSET -0.73152 -45.1104 -5.12064
          CHANNELS 3 Zrotation Xrotation Yrotation
          End Site
          {
            OFFSET 1.1221 -3.69964 12.103
          }
        }
      }
    }
  }
}
MOTION
Frames:	6
Frame Time:	0.00833333
44.4193 85.3166 82.3008 0.0 0.0 0.0 1.08606 -0.00408995 0.0298992 0.299446 -0.00345838 0.0518743 2.3824e-14 -1.59028e-15 5.2181e-16 7.16215e-14 3.18055e-15 1.53748e-15 -0.0 0.0 0.0 -0.0 0.0 0.0 1.20256e-14 1.65007e-17 4.47265e-16 2.51311e-13 -3.10601e-17 6.55989e-15 4.29892e-12 -1.27819e-12 6.04305e-14 4.91445e-11 1.33648e-12 1.11319e-12 1.15933e-10 1.30644e-13 2.53172e-12 2.00205e-10 2.3218e-13 4.37406e-12 1.15935e-10 1.31993e-13 2.52536e-12 7.73091 5.47488 0.417314 1.15933e-10 1.30502e-13 2.53808e-12 2.90554 0.965183 0.102902 1.1594e-10 1.30999e-13 2.53729e-12 10.2786 0.731801 0.0259123 1.15929e-10 1.29608e-13 2.5508e-12 2.22167 -0.733487 -0.20892 1.19287e-14 1.76654e-17 4.96962e-17 2.47788e-13 -4.34841e-17 5.36719e-15 4.28928e-12 1.29985e-12 6.67917e-14 4.91639e-11 -1.23311e-12 1.12592e-12 1.15953e-10 1.48487e-13 2.5508e-12 2.00254e-10 2.60805e-13 4.38996e-12 1.15946e-10 1.51474e-13 2.55717e-12 -7.73091 5.47488 -0.417314 1.15954e-10 1.48492e-13 2.54444e-12 -2.90554 0.965183 -0.102902 1.15951e-10 1.48393e-13 2.54206e-12 -10.2786 0.731801 -0.0259123 1.15956e-10 1.48691e-13 2.52854e-12 -2.22167 -0.733487 0.20892 -2.03217e-16 0.0 -3.88251e-19 1.33869 -5.65666 -0.117791 0.000448758 4.68993 0.0313065 -0.52463 0.964921 0.0795484 2.03217e-16 0.0 3.88251e-19 0.313478 -1.92005 0.0118643 0.00934826 -2.07854 0.0772556 0.509858 3.99665 -0.139958
44.5973 83.7712 72.0045 -178.961 0.1432 -176.042 1.28084 1.86319 1.53122 0.434299 0.207615 0.515907 -3.38831 1.50739 -0.400134 0.914582 -1.24362 -0.563701 -0.0 0.0 0.0 -0.0 0.0 0.0 5.18014e-16 2.82024e-14 5.77136e-15 21.6282 1.13043 -0.350021 -4.05162 -1.80868 6.36281 0.00489047 -1.55171 -0.21779 6.39243e-11 1.70571e-10 -3.1022e-10 1.1088e-10 2.94129e-10 -5.36403e-10 6.39261e-11 1.70573e-10 -3.1023e-10 7.73091 5.47488 0.417314 6.39238e-11 1.70571e-10 -3.10216e-10 2.90554 0.965183 0.102902 6.39297e-11 1.70571e-10 -3.10217e-10 10.2786 0.731801 0.0259123 6.39197e-11 1.70571e-10 -3.10206e-10 2.22167 -0.733487 -0.20892 4.23915e-16 2.82026e-14 5.39863e-15 -20.9716 0.364578 -0.514195 6.70835 -3.78766 -9.55084 -0.000638579 0.577642 -0.0811686 4.29703e-10 3.87545e-10 1.28232e-10 7.43413e-10 6.7074e-10 2.20788e-10 4.29697e-10 3.87548e-10 1.28239e-10 -7.73091 5.47488 -0.417314 4.29704e-10 3.87546e-10 1.28227e-10 -2.90554 0.965183 -0.102902 4.29699e-10 3.87545e-10 1.28225e-10 -10.2786 0.731801 -0.0259123 4.29707e-10 3.87546e-10 1.28214e-10 -2.22167 -0.733487 0.20892 -2.03217e-16 0.0 -3.88251e-19 -1.253 -8.17268 -0.81898 0.019351 12.0548 0.173391 -0.758133 -2.83077 -2.67156 2.03217e-16 0.0 3.88251e-19 0.964466 -6.05006 0.523127 0.00203506 6.82914 -0.0535361 0.285512 -0.732354 -1.5723
44.3074 83.7536 71.9581 -179.129 0.4913 -175.906 1.36856 3.83873 3.12047 0.576179 0.433453 1.00562 -6.94542 3.10139 -0.823193 1.85492 -2.5378 -1.16244 -0.0 0.0 0.0 -0.0 0.0 0.0 -1.1761e-14 5.79536e-14 1.19116e-14 44.509 2.30511 -0.724317 -7.89768 -3.64413 13.1045 -0.00277924 -3.18798 -0.44799 1.02049e-11 3.56066e-10 -6.40444e-10 1.86425e-11 6.14031e-10 -1.10738e-09 1.02071e-11 3.56068e-10 -6.40458e-10 7.73091 5.47488 0.417314 1.02042e-11 3.56065e-10 -6.40441e-10 2.90554 0.965183 0.102902 1.02084e-11 3.56066e-10 -6.40443e-10 10.2786 0.731801 0.0259123 1.01994e-11 3.56067e-10 -6.40434e-10 2.22167 -0.733487 -0.20892 -1.18516e-14 5.79526e-14 1.15637e-14 -43.1399 0.733222 -1.06112 12.4337 -7.42998 -19.7636 0.000503386 1.20438 -0.169264 7.55264e-10 7.90927e-10 2.62706e-10 1.30701e-09 1.36889e-09 4.5234e-10 7.55259e-10 7.90928e-10 2.62714e-10 -7.73091 5.47488 -0.417314 7.55264e-10 7.90927e-10 2.62703e-10 -2.90554 0.965183 -0.102902 7.55258e-10 7.90927e-10 2.62702e-10 -10.2786 0.731801 -0.0259123 7.55269e-10 7.90928e-10 2.62693e-10 -2.22167 -0.733487 0.20892 -2.03217e-16 0.0 -3.88251e-19 -4.05835 -10.8087 -1.57237 -0.00255486 19.8137 0.335582 -1.40696 -6.83844 -5.62566 2.03217e-16 0.0 3.88251e-19 1.73352 -10.4127 1.06457 0.0398261 16.2414 -0.198868 -0.209174 -5.71944 -3.10099
44.0012 83.7443 71.876 -179.47 0.898 -175.865 1.37596 5.58217 4.55308 0.693748 0.629588 1.44405 -10.1016 4.5213 -1.20373 2.67021 -3.72941 -1.69429 -0.0 0.0 0.0 -0.0 0.0 0.0 -2.24972e-14 8.45743e-14 1.64195e-14 64.9261 3.39078 -1.0517 -10.9704 -5.15892 19.1595 -0.0208171 -4.65486 -0.655291 -4.00938e-11 5.11453e-10 -9.35724e-10 -6.77687e-11 8.81922e-10 -1.61796e-09 -4.00912e-11 5.11454e-10 -9.35742e-10 7.73091 5.47488 0.417314 -4.00945e-11 5.11451e-10 -9.35723e-10 2.90554 0.965183 0.102902 -4.00918e-11 5.11451e-10 -9.35725e-10 10.2786 0.731801 0.0259123 -4.00999e-11 5.11454e-10 -9.35718e-10 2.22167 -0.733487 -0.20892 -2.25856e-14 8.45724e-14 1.60965e-14 -62.8951 1.09338 -1.54284 16.4638 -10.1015 -29.0822 0.0029961 1.73291 -0.243605 1.0572e-09 1.16234e-09 3.79594e-10 1.82973e-09 2.0117e-09 6.53584e-10 1.0572e-09 1.16234e-09 3.79603e-10 -7.73091 5.47488 -0.417314 1.0572e-09 1.16234e-09 3.79592e-10 -2.90554 0.965183 -0.102902 1.0572e-09 1.16234e-09 3.79592e-10 -10.2786 0.731801 -0.0259123 1.05721e-09 1.16234e-09 3.79585e-10 -2.22167 -0.733487 0.20892 -2.03217e-16 0.0 -3.88251e-19 -6.62587 -13.1973 -2.25719 -0.0646152 26.7837 0.499936 -2.32929 -10.3245 -8.29927 2.03217e-16 0.0 3.88251e-19 2.49384 -14.3056 1.58612 0.117914 24.6441 -0.345333 -0.88021 -10.1603 -4.50813
43.6202 83.7532 71.7258 -180.022 0.9965 -176.061 1.39118 6.76011 5.57564 0.757961 0.751633 1.75418 -12.3 5.50679 -1.47481 3.22335 -4.66595 -2.05611 -0.0 0.0 0.0 -0.0 0.0 0.0 -2.93763e-14 1.03369e-13 1.6847e-14 79.1546 4.25446 -1.26033 -12.9329 -6.12474 23.4306 -0.0399933 -5.69851 -0.803551 -8.18406e-11 5.91568e-10 -1.14364e-09 -1.39613e-10 1.01978e-09 -1.97753e-09 -8.18377e-11 5.91569e-10 -1.14366e-09 7.73091 5.47488 0.417314 -8.18413e-11 5.91566e-10 -1.14364e-09 2.90554 0.965183 0.102902 -8.18392e-11 5.91566e-10 -1.14365e-09 10.2786 0.731801 0.0259123 -8.18468e-11 5.9157e-10 -1.14364e-09 2.22167 -0.733487 -0.20892 -2.94659e-14 1.03367e-13 1.65488e-14 -76.6298 1.43264 -1.86135 18.7651 -11.5337 -35.7602 0.00498709 2.01598 -0.283446 1.30009e-09 1.45383e-09 4.52517e-10 2.25025e-09 2.51618e-09 7.79055e-10 1.30009e-09 1.45383e-09 4.52526e-10 -7.73091 5.47488 -0.417314 1.30009e-09 1.45383e-09 4.52517e-10 -2.90554 0.965183 -0.102902 1.30008e-09 1.45383e-09 4.52516e-10 -10.2786 0.731801 -0.0259123 1.3001e-09 1.45383e-09 4.5251e-10 -2.22167 -0.733487 0.20892 -2.03217e-16 0.0 -3.88251e-19 -8.4662 -14.9734 -2.74202 -0.138578 31.7821 0.632868 -3.13372 -12.605 -10.1425 2.03217e-16 0.0 3.88251e-19 3.07764 -17.0276 2.02323 0.202255 30.5234 -0.464067 -1.48548 -13.2655 -5.53307
43.2877 83.7557 71.6244 -180.343 1.173 -176.173 1.54764 7.12826 6.03218 0.741906 0.769061 1.89056 -13.1726 5.89612 -1.59647 3.43308 -5.25978 -2.19134 -0.0 0.0 0.0 -0.0 0.0 0.0 -3.10483e-14 1.17356e-13 9.67833e-15 84.7084 4.81509 -1.31517 -13.6798 -6.49084 25.1506 -0.0496368 -6.14801 -0.86763 -1.34204e-10 6.22839e-10 -1.27492e-09 -2.30124e-10 1.07335e-09 -2.20465e-09 -1.34201e-10 6.2284e-10 -1.27494e-09 7.73091 5.47488 0.417314 -1.34205e-10 6.22837e-10 -1.27492e-09 2.90554 0.965183 0.102902 -1.34202e-10 6.22837e-10 -1.27492e-09 10.2786 0.731801 0.0259123 -1.3421e-10 6.22841e-10 -1.27492e-09 2.22167 -0.733487 -0.20892 -3.11493e-14 1.17356e-13 9.40733e-15 -81.9291 1.7812 -1.94989 19.63 -12.0509 -38.5767 0.00438219 1.87885 -0.264151 1.51918e-09 1.70113e-09 4.81124e-10 2.62959e-09 2.94404e-09 8.28178e-10 1.51918e-09 1.70113e-09 4.81135e-10 -7.73091 5.47488 -0.417314 1.51918e-09 1.70113e-09 4.81126e-10 -2.90554 0.965183 -0.102902 1.51917e-09 1.70113e-09 4.81124e-10 -10.2786 0.731801 -0.0259123 1.51919e-09 1.70113e-09 4.81118e-10 -2.22167 -0.733487 0.20892 -2.03217e-16 0.0 -3.88251e-19 -9.18662 -15.9153 -2.92988 -0.180811 34.01 0.69373 -3.41488 -13.2721 -10.7364 2.03217e-16 0.0 3.88251e-19 3.38783 -18.1565 2.34415 0.244013 32.9001 -0.51683 -1.77187 -14.5413 -5.97765
